#Comment line ignore any data following # character 
#Hierarchical Translation and Rotation (.htr) file 
[Header]	
#Header keywords are followed by a single value 
FileType HTR		#Single word string
DataType HTRS		#Translation followed by rotation and scale data
FileVersion 1		#integer
NumSegments 84		#integer
NumFrames 2		#integer
DataFrameRate 30		#integer, data frame rate in this file
EulerRotationOrder ZYX
CalibrationUnits mm
RotationUnits Degrees
GlobalAxisofGravity Y
BoneLengthAxis Y
ScaleFactor 1.00
[SegmentNames&Hierarchy]
#CHILD	PARENT
MASTER GLOBAL
root MASTER
chest root
L_mid_tent01 root
R_mid_tent01 root
spine01 root
Bip01_Neck chest
L_humerus chest
R_humerus chest
weapon_bone chest
Bip01_Head Bip01_Neck
eye_left_bone Bip01_Head
eye_right_bone Bip01_Head
L_forearm L_humerus
L_front_hand L_forearm
L_weapon_bone L_forearm
L_front_hand01_01 L_front_hand
L_front_hand02_01 L_front_hand
L_front_hand03_01 L_front_hand
L_front_hand01_02 L_front_hand01_01
L_front_hand02_02 L_front_hand02_01
L_front_hand03_02 L_front_hand03_01
R_forearm R_humerus
R_front_hand R_forearm
R_weapon_bone R_forearm
R_front_hand01_01 R_front_hand
R_front_hand02_01 R_front_hand
R_front_hand03_01 R_front_hand
R_front_hand01_02 R_front_hand01_01
R_front_hand02_02 R_front_hand02_01
R_front_hand03_02 R_front_hand03_01
null_rope01_connect L_mid_tent01
Rope1_Seg01 null_rope01_connect
Rope1_Seg02 Rope1_Seg01
Rope1_Seg03 Rope1_Seg02
Rope1_Seg04 Rope1_Seg03
Rope1_Seg05 Rope1_Seg04
Rope1_Seg06 Rope1_Seg05
Rope1_Seg07 Rope1_Seg06
Rope1_Seg09 Rope1_Seg07
L_mid_hand01 Rope1_Seg09
L_mid_hand02 Rope1_Seg09
L_mid_hand03 Rope1_Seg09
null_rope02_connect R_mid_tent01
Rope2_Seg01 null_rope02_connect
Rope2_Seg02 Rope2_Seg01
Rope2_Seg03 Rope2_Seg02
Rope2_Seg04 Rope2_Seg03
Rope2_Seg05 Rope2_Seg04
Rope2_Seg06 Rope2_Seg05
Rope2_Seg07 Rope2_Seg06
Rope2_Seg09 Rope2_Seg07
R_mid_hand01 Rope2_Seg09
R_mid_hand02 Rope2_Seg09
R_mid_hand03 Rope2_Seg09
spine02 spine01
spine03 spine02
pelvis spine03
null_rope03_connect pelvis
null_rope04_connect pelvis
Rope3_Seg01 null_rope03_connect
Rope3_Seg02 Rope3_Seg01
Rope3_Seg03 Rope3_Seg02
Rope3_Seg04 Rope3_Seg03
Rope3_Seg05 Rope3_Seg04
Rope3_Seg06 Rope3_Seg05
Rope3_Seg07 Rope3_Seg06
Rope3_Seg08 Rope3_Seg07
Rope3_Seg09 Rope3_Seg08
R_rear_hand01 Rope3_Seg09
R_rear_hand02 Rope3_Seg09
R_rear_hand03 Rope3_Seg09
Rope4_Seg01 null_rope04_connect
Rope4_Seg02 Rope4_Seg01
Rope4_Seg03 Rope4_Seg02
Rope4_Seg04 Rope4_Seg03
Rope4_Seg05 Rope4_Seg04
Rope4_Seg06 Rope4_Seg05
Rope4_Seg07 Rope4_Seg06
Rope4_Seg08 Rope4_Seg07
Rope4_Seg09 Rope4_Seg08
L_rear_hand01 Rope4_Seg09
L_rear_hand02 Rope4_Seg09
L_rear_hand03 Rope4_Seg09
[BasePosition]
#SegmentName Tx, Ty, Tz, Rx, Ry, Rz, BoneLength
MASTER 0.000000 0.000000 0.000000 -90.000000 0.000000 0.000000 10.000000 
root 0.000000 0.000000 0.000000 0.000000 0.000000 0.000000 10.000000 
chest 0.000000 0.000000 0.000000 0.000000 0.000000 0.000000 10.000000 
L_mid_tent01 0.000000 0.000000 0.000000 0.000000 0.000000 0.000000 10.000000 
R_mid_tent01 0.000000 0.000000 0.000000 0.000000 0.000000 0.000000 10.000000 
spine01 0.000000 0.000000 0.000000 0.000000 0.000000 0.000000 10.000000 
Bip01_Neck 0.000000 0.000000 0.000000 0.000000 0.000000 0.000000 10.000000 
L_humerus 0.000000 0.000000 0.000000 0.000000 0.000000 0.000000 10.000000 
R_humerus 0.000000 0.000000 0.000000 0.000000 0.000000 0.000000 10.000000 
weapon_bone 0.000000 0.000000 0.000000 0.000000 0.000000 0.000000 10.000000 
Bip01_Head 0.000000 0.000000 0.000000 0.000000 0.000000 0.000000 10.000000 
eye_left_bone 0.000000 0.000000 0.000000 0.000000 0.000000 0.000000 10.000000 
eye_right_bone 0.000000 0.000000 0.000000 0.000000 0.000000 0.000000 10.000000 
L_forearm 0.000000 0.000000 0.000000 0.000000 0.000000 0.000000 10.000000 
L_front_hand 0.000000 0.000000 0.000000 0.000000 0.000000 0.000000 10.000000 
L_weapon_bone 0.000000 0.000000 0.000000 0.000000 0.000000 0.000000 10.000000 
L_front_hand01_01 0.000000 0.000000 0.000000 0.000000 0.000000 0.000000 10.000000 
L_front_hand02_01 0.000000 0.000000 0.000000 0.000000 0.000000 0.000000 10.000000 
L_front_hand03_01 0.000000 0.000000 0.000000 0.000000 0.000000 0.000000 10.000000 
L_front_hand01_02 0.000000 0.000000 0.000000 0.000000 0.000000 0.000000 10.000000 
L_front_hand02_02 0.000000 0.000000 0.000000 0.000000 0.000000 0.000000 10.000000 
L_front_hand03_02 0.000000 0.000000 0.000000 0.000000 0.000000 0.000000 10.000000 
R_forearm 0.000000 0.000000 0.000000 0.000000 0.000000 0.000000 10.000000 
R_front_hand 0.000000 0.000000 0.000000 0.000000 0.000000 0.000000 10.000000 
R_weapon_bone 0.000000 0.000000 0.000000 0.000000 0.000000 0.000000 10.000000 
R_front_hand01_01 0.000000 0.000000 0.000000 0.000000 0.000000 0.000000 10.000000 
R_front_hand02_01 0.000000 0.000000 0.000000 0.000000 0.000000 0.000000 10.000000 
R_front_hand03_01 0.000000 0.000000 0.000000 0.000000 0.000000 0.000000 10.000000 
R_front_hand01_02 0.000000 0.000000 0.000000 0.000000 0.000000 0.000000 10.000000 
R_front_hand02_02 0.000000 0.000000 0.000000 0.000000 0.000000 0.000000 10.000000 
R_front_hand03_02 0.000000 0.000000 0.000000 0.000000 0.000000 0.000000 10.000000 
null_rope01_connect 0.000000 0.000000 0.000000 0.000000 0.000000 0.000000 10.000000 
Rope1_Seg01 0.000000 0.000000 0.000000 0.000000 0.000000 0.000000 10.000000 
Rope1_Seg02 0.000000 0.000000 0.000000 0.000000 0.000000 0.000000 10.000000 
Rope1_Seg03 0.000000 0.000000 0.000000 0.000000 0.000000 0.000000 10.000000 
Rope1_Seg04 0.000000 0.000000 0.000000 0.000000 0.000000 0.000000 10.000000 
Rope1_Seg05 0.000000 0.000000 0.000000 0.000000 0.000000 0.000000 10.000000 
Rope1_Seg06 0.000000 0.000000 0.000000 0.000000 0.000000 0.000000 10.000000 
Rope1_Seg07 0.000000 0.000000 0.000000 0.000000 0.000000 0.000000 10.000000 
Rope1_Seg09 0.000000 0.000000 0.000000 0.000000 0.000000 0.000000 10.000000 
L_mid_hand01 0.000000 0.000000 0.000000 0.000000 0.000000 0.000000 10.000000 
L_mid_hand02 0.000000 0.000000 0.000000 0.000000 0.000000 0.000000 10.000000 
L_mid_hand03 0.000000 0.000000 0.000000 0.000000 0.000000 0.000000 10.000000 
null_rope02_connect 0.000000 0.000000 0.000000 0.000000 0.000000 0.000000 10.000000 
Rope2_Seg01 0.000000 0.000000 0.000000 0.000000 0.000000 0.000000 10.000000 
Rope2_Seg02 0.000000 0.000000 0.000000 0.000000 0.000000 0.000000 10.000000 
Rope2_Seg03 0.000000 0.000000 0.000000 0.000000 0.000000 0.000000 10.000000 
Rope2_Seg04 0.000000 0.000000 0.000000 0.000000 0.000000 0.000000 10.000000 
Rope2_Seg05 0.000000 0.000000 0.000000 0.000000 0.000000 0.000000 10.000000 
Rope2_Seg06 0.000000 0.000000 0.000000 0.000000 0.000000 0.000000 10.000000 
Rope2_Seg07 0.000000 0.000000 0.000000 0.000000 0.000000 0.000000 10.000000 
Rope2_Seg09 0.000000 0.000000 0.000000 0.000000 0.000000 0.000000 10.000000 
R_mid_hand01 0.000000 0.000000 0.000000 0.000000 0.000000 0.000000 10.000000 
R_mid_hand02 0.000000 0.000000 0.000000 0.000000 0.000000 0.000000 10.000000 
R_mid_hand03 0.000000 0.000000 0.000000 0.000000 0.000000 0.000000 10.000000 
spine02 0.000000 0.000000 0.000000 0.000000 0.000000 0.000000 10.000000 
spine03 0.000000 0.000000 0.000000 0.000000 0.000000 0.000000 10.000000 
pelvis 0.000000 0.000000 0.000000 0.000000 0.000000 0.000000 10.000000 
null_rope03_connect 0.000000 0.000000 0.000000 0.000000 0.000000 0.000000 10.000000 
null_rope04_connect 0.000000 0.000000 0.000000 0.000000 0.000000 0.000000 10.000000 
Rope3_Seg01 0.000000 0.000000 0.000000 0.000000 0.000000 0.000000 10.000000 
Rope3_Seg02 0.000000 0.000000 0.000000 0.000000 0.000000 0.000000 10.000000 
Rope3_Seg03 0.000000 0.000000 0.000000 0.000000 0.000000 0.000000 10.000000 
Rope3_Seg04 0.000000 0.000000 0.000000 0.000000 0.000000 0.000000 10.000000 
Rope3_Seg05 0.000000 0.000000 0.000000 0.000000 0.000000 0.000000 10.000000 
Rope3_Seg06 0.000000 0.000000 0.000000 0.000000 0.000000 0.000000 10.000000 
Rope3_Seg07 0.000000 0.000000 0.000000 0.000000 0.000000 0.000000 10.000000 
Rope3_Seg08 0.000000 0.000000 0.000000 0.000000 0.000000 0.000000 10.000000 
Rope3_Seg09 0.000000 0.000000 0.000000 0.000000 0.000000 0.000000 10.000000 
R_rear_hand01 0.000000 0.000000 0.000000 0.000000 0.000000 0.000000 10.000000 
R_rear_hand02 0.000000 0.000000 0.000000 0.000000 0.000000 0.000000 10.000000 
R_rear_hand03 0.000000 0.000000 0.000000 0.000000 0.000000 0.000000 10.000000 
Rope4_Seg01 0.000000 0.000000 0.000000 0.000000 0.000000 0.000000 10.000000 
Rope4_Seg02 0.000000 0.000000 0.000000 0.000000 0.000000 0.000000 10.000000 
Rope4_Seg03 0.000000 0.000000 0.000000 0.000000 0.000000 0.000000 10.000000 
Rope4_Seg04 0.000000 0.000000 0.000000 0.000000 0.000000 0.000000 10.000000 
Rope4_Seg05 0.000000 0.000000 0.000000 0.000000 0.000000 0.000000 10.000000 
Rope4_Seg06 0.000000 0.000000 0.000000 0.000000 0.000000 0.000000 10.000000 
Rope4_Seg07 0.000000 0.000000 0.000000 0.000000 0.000000 0.000000 10.000000 
Rope4_Seg08 0.000000 0.000000 0.000000 0.000000 0.000000 0.000000 10.000000 
Rope4_Seg09 0.000000 0.000000 0.000000 0.000000 0.000000 0.000000 10.000000 
L_rear_hand01 0.000000 0.000000 0.000000 0.000000 0.000000 0.000000 10.000000 
L_rear_hand02 0.000000 0.000000 0.000000 0.000000 0.000000 0.000000 10.000000 
L_rear_hand03 0.000000 0.000000 0.000000 0.000000 0.000000 0.000000 10.000000 
#Beginning of Data. Separated by tabs
#Fr	Tx	Ty	Tz	Rx	Ry	Rz	SF
[MASTER]
28 0.000000 0.000000 0.000000 0.001660 0.001660 0.001660 0.000000
29 0.000000 0.000000 0.000000 0.001660 0.001660 0.001660 0.000000
[root]
28 -16.502337 79.113060 1602.349731 -80.078209 -1.793139 -109.356033 1604.386475
29 -16.502335 71.822395 1586.249634 -83.740082 -4.612673 -107.961304 1587.960449
[chest]
28 -84.512650 -34.090519 0.000000 -2.141945 -0.009111 167.939301 91.129311
29 -84.512650 -34.090519 0.000000 -2.146375 -0.008535 167.994995 91.129311
[L_mid_tent01]
28 27.299109 22.179144 -249.918701 42.789894 47.141850 119.430367 252.381683
29 27.299110 22.179140 -249.918701 32.635220 49.191734 105.181679 252.381683
[R_mid_tent01]
28 23.228794 24.509907 226.238495 173.821121 -7.519746 41.338673 228.744751
29 23.228794 24.509907 226.238495 175.892929 -8.939002 39.729385 228.744751
[spine01]
28 -0.361383 -0.195265 0.000000 -0.000001 -0.000007 22.052340 0.410763
29 -0.361383 -0.195265 0.000000 -0.000001 -0.000007 22.052340 0.410763
[Bip01_Neck]
28 165.484543 71.581718 0.000119 175.896118 1.177290 24.871183 180.302734
29 165.484543 71.581718 0.000119 175.896118 1.177290 24.871183 180.302734
[L_humerus]
28 -13.983130 -135.272980 -120.471481 -128.107834 42.270206 -28.822046 181.680161
29 -13.983130 -135.272980 -120.471481 -135.549744 46.265865 -37.488602 181.680161
[R_humerus]
28 -13.983309 -135.273102 125.287651 175.382874 -74.343231 -78.114784 184.909012
29 -13.983309 -135.273102 125.287651 169.273438 -77.837914 -72.169609 184.909012
[weapon_bone]
28 235.964890 -300.705902 0.000000 0.000000 -89.951546 -128.212341 382.234833
29 235.964890 -300.705902 0.000000 0.000000 -89.951546 -128.212341 382.234833
[Bip01_Head]
28 189.442657 168.346802 7.289765 2.169169 2.139310 -50.648617 253.539551
29 192.692200 164.313766 6.736768 2.280783 2.608286 -52.787720 253.327225
[eye_left_bone]
28 32.876156 157.653473 -71.575424 -125.352768 -88.299118 25.913584 176.234207
29 32.668758 157.452164 -71.345467 -126.272469 -88.400520 26.833662 175.922165
[eye_right_bone]
28 38.129539 158.895676 57.368599 54.520199 -88.307541 26.044737 173.184448
29 37.570213 158.681625 57.622646 53.900116 -88.395378 26.664940 172.950134
[L_forearm]
28 322.776093 0.000000 -0.000119 0.000853 0.002187 -47.386753 322.776093
29 322.776093 0.000000 -0.000119 0.000721 0.002234 -54.198345 322.776093
[L_front_hand]
28 241.149185 -0.042021 -3.300071 145.870651 -2.320514 -13.854826 241.171753
29 241.149185 -0.042021 -3.300071 144.835312 -2.644817 -14.880969 241.171753
[L_weapon_bone]
28 156.183838 0.000000 0.000000 0.000014 0.000007 0.000001 156.183838
29 156.183838 0.000000 0.000000 0.000014 0.000007 0.000001 156.183838
[L_front_hand01_01]
28 86.095154 20.947098 -0.655860 -0.366594 -0.477154 75.385574 88.609184
29 86.095154 20.947098 -0.655860 -0.366594 -0.477154 75.385574 88.609184
[L_front_hand02_01]
28 86.935165 -11.437475 24.513514 154.399796 -59.883835 -61.369587 91.046425
29 86.935165 -11.437475 24.513514 154.399796 -59.883835 -61.369587 91.046425
[L_front_hand03_01]
28 86.637497 -14.123976 -20.424902 -153.913849 58.118122 -62.702866 90.126129
29 86.637497 -14.123976 -20.424902 -153.913849 58.118122 -62.702866 90.126129
[L_front_hand01_02]
28 71.020905 -0.000179 0.000030 0.000334 -0.002323 -106.379684 71.020905
29 71.020905 -0.000179 0.000030 0.000334 -0.002323 -106.379684 71.020905
[L_front_hand02_02]
28 71.020927 -0.000119 0.000060 0.000334 -0.002323 -106.379684 71.020927
29 71.020927 -0.000119 0.000060 0.000334 -0.002323 -106.379684 71.020927
[L_front_hand03_02]
28 71.020905 -0.000060 0.000060 0.000334 -0.002323 -106.379684 71.020905
29 71.020905 -0.000060 0.000060 0.000334 -0.002323 -106.379684 71.020905
[R_forearm]
28 322.776428 -0.000060 0.000030 0.203855 -0.059448 -75.160339 322.776428
29 322.776428 -0.000060 0.000030 0.206013 -0.047351 -78.040436 322.776428
[R_front_hand]
28 238.847015 -0.006795 2.210259 -2.635298 -10.645461 -26.312506 238.857239
29 238.847015 -0.006795 2.210259 -2.635298 -10.645461 -26.312506 238.857239
[R_weapon_bone]
28 155.664093 0.002503 -0.000030 0.003487 0.001180 -90.988930 155.664078
29 155.664093 0.002503 -0.000030 0.003487 0.001180 -90.988930 155.664078
[R_front_hand01_01]
28 87.624611 14.231146 22.918642 -154.633499 -59.950619 61.746044 91.683487
29 87.624611 14.231146 22.918642 -154.633484 -59.950619 61.746037 91.683487
[R_front_hand02_01]
28 89.356956 14.367283 -19.491137 154.602661 58.302849 63.744389 92.579636
29 89.356956 14.367283 -19.491137 154.602661 58.302849 63.744389 92.579636
[R_front_hand03_01]
28 87.286232 -22.307278 -0.143439 0.162155 -0.423168 -75.767921 90.091743
29 87.286232 -22.307278 -0.143439 0.162155 -0.423168 -75.767921 90.091743
[R_front_hand01_02]
28 71.020905 0.000060 0.000119 0.002323 -0.000334 106.381714 71.020905
29 71.020905 0.000060 0.000119 0.002323 -0.000334 106.381714 71.020905
[R_front_hand02_02]
28 71.020844 -0.000030 -0.000119 0.002323 -0.000334 106.381714 71.020836
29 71.020844 -0.000030 -0.000119 0.002323 -0.000334 106.381714 71.020836
[R_front_hand03_02]
28 71.020905 0.000000 0.000030 0.002323 -0.000334 106.381714 71.020905
29 71.020905 0.000000 0.000030 0.002323 -0.000334 106.381714 71.020905
[null_rope01_connect]
28 328.732483 0.000000 -0.000238 -142.190872 -28.595306 123.262978 328.732483
29 328.732483 0.000000 -0.000238 -138.634048 -28.231733 134.298782 328.732483
[Rope1_Seg01]
28 0.000000 0.000000 0.000000 97.892906 37.818779 115.792007 0.000000
29 0.000000 0.000000 0.000000 105.386993 40.160965 127.260513 0.000000
[Rope1_Seg02]
28 139.999863 -0.000179 0.000000 -1.387173 -10.531137 9.104119 139.999863
29 139.999863 -0.000179 0.000000 -1.138780 -11.142879 7.646815 139.999863
[Rope1_Seg03]
28 139.999924 0.000060 -0.000060 -3.008684 -13.273515 11.386273 139.999924
29 139.999924 0.000060 -0.000060 -3.444857 -15.287814 10.456273 139.999924
[Rope1_Seg04]
28 139.999924 -0.000060 -0.000119 -6.334015 -15.220034 12.753341 139.999924
29 139.999924 -0.000060 -0.000119 -9.068699 -18.744457 11.111029 139.999924
[Rope1_Seg05]
28 139.999832 0.000119 -0.000060 -8.115697 -9.244936 5.933468 139.999832
29 139.999832 0.000119 -0.000060 -10.388343 -12.345231 6.224607 139.999832
[Rope1_Seg06]
28 139.999954 0.000119 -0.000060 -5.570907 -3.093538 0.711963 139.999954
29 139.999954 0.000119 -0.000060 -4.384204 -4.938642 3.039632 139.999954
[Rope1_Seg07]
28 139.999985 0.000060 0.000000 -5.220269 -2.346086 0.306722 139.999985
29 139.999985 0.000060 0.000000 -4.041216 -3.344151 1.837709 139.999985
[Rope1_Seg09]
28 121.602913 0.000119 -0.000089 -70.587212 3.570015 0.074843 121.602913
29 121.602913 0.000119 -0.000089 -110.176987 3.250406 -1.687153 121.602913
[L_mid_hand01]
28 103.859421 1.038730 8.195221 128.484680 -66.519989 -36.629040 104.187431
29 103.859421 1.038730 8.195221 123.754356 -63.500835 -31.414219 104.187431
[L_mid_hand02]
28 105.572853 -4.139662 -10.864139 -167.652283 43.129795 -71.648781 106.211075
29 105.572853 -4.139662 -10.864139 -164.309570 42.223682 -66.723373 106.211075
[L_mid_hand03]
28 104.641464 17.579376 -3.913581 -6.454782 17.660181 73.454277 106.179977
29 104.641464 17.579376 -3.913581 -7.618895 17.202646 69.572044 106.179977
[null_rope02_connect]
28 328.732849 0.000179 -0.000119 137.158188 76.631485 -96.200104 328.732849
29 328.732849 0.000179 -0.000119 136.020706 78.995056 -100.947975 328.732849
[Rope2_Seg01]
28 0.000095 0.000153 0.000057 69.863441 -7.059044 -69.813622 0.000189
29 0.000095 0.000153 0.000059 66.443703 -6.613149 -66.328156 0.000189
[Rope2_Seg02]
28 139.999741 -0.000060 -0.000119 12.498879 4.630280 -10.437128 139.999756
29 139.999741 -0.000060 -0.000119 15.056560 2.888357 -10.667075 139.999756
[Rope2_Seg03]
28 140.000107 0.000030 0.000000 13.901655 4.183948 -8.631301 140.000107
29 140.000107 0.000030 0.000000 15.821128 2.958823 -8.972896 140.000107
[Rope2_Seg04]
28 139.999802 0.000000 -0.000060 13.609086 1.427780 -6.052465 139.999802
29 139.999802 0.000000 -0.000060 14.159273 0.064787 -6.088198 139.999802
[Rope2_Seg05]
28 139.999985 -0.000060 0.000119 10.615188 -9.856103 -1.609131 139.999985
29 139.999985 -0.000060 0.000119 4.608324 -11.900842 2.099155 139.999985
[Rope2_Seg06]
28 139.999893 -0.000030 -0.000119 4.098854 -29.434519 6.297546 139.999893
29 139.999893 -0.000030 -0.000119 -1.832032 -25.862223 11.304297 139.999893
[Rope2_Seg07]
28 139.999893 0.000060 -0.000060 -0.137040 -28.374338 7.049897 139.999893
29 139.999893 0.000060 -0.000060 -0.736334 -20.373013 7.264036 139.999893
[Rope2_Seg09]
28 121.338966 0.000089 -0.000060 33.793236 -1.359788 -0.847141 121.338966
29 121.338966 0.000089 -0.000060 33.793236 -1.359788 -0.847141 121.338966
[R_mid_hand01]
28 104.680779 11.144459 -10.335981 -44.145958 19.560667 21.759451 105.778534
29 104.680779 11.144459 -10.335981 -44.145947 19.560663 21.759447 105.778534
[R_mid_hand02]
28 104.070427 2.443552 8.231699 74.186180 -24.483591 7.232481 104.424065
29 104.070427 2.443552 8.231699 74.186180 -24.483591 7.232481 104.424065
[R_mid_hand03]
28 106.028137 -11.221827 -5.996406 -166.520828 8.347036 -28.494411 106.788818
29 106.028137 -11.221827 -5.996406 -166.520828 8.347036 -28.494411 106.788818
[spine02]
28 129.756927 0.001550 0.000119 0.606596 -4.014473 -16.433250 129.756927
29 129.756927 0.001550 0.000119 0.576830 -4.018667 -16.004009 129.756927
[spine03]
28 78.614067 0.081635 -4.899013 0.396710 4.255324 -4.562730 78.766602
29 78.614067 0.081635 -4.899014 0.586146 4.237144 -1.995980 78.766602
[pelvis]
28 169.435242 0.051022 0.000000 -0.061008 -0.180043 14.432875 169.435257
29 169.435242 0.051022 0.000000 -0.060909 -0.180076 14.370049 169.435257
[null_rope03_connect]
28 -1.257226 -2.466202 137.391083 -58.818489 -67.924530 137.112000 137.418976
29 -1.257226 -2.466202 137.391083 -66.287743 -71.006310 143.726761 137.418976
[null_rope04_connect]
28 -1.259640 -2.480268 -137.844437 -58.818489 -67.924530 137.112000 137.872513
29 -1.259640 -2.480268 -137.844437 -66.287743 -71.006310 143.726761 137.872513
[Rope3_Seg01]
28 0.000010 0.000010 -0.000038 -130.941437 14.398013 -76.983864 0.000040
29 0.000010 0.000008 -0.000034 -131.457077 14.502368 -79.188293 0.000036
[Rope3_Seg02]
28 139.999924 -0.000119 0.000060 -0.506667 -1.499727 6.654709 139.999924
29 139.999924 -0.000119 0.000060 -0.559020 -0.814133 6.399008 139.999924
[Rope3_Seg03]
28 139.999924 -0.000119 0.000119 -1.916688 -2.542994 10.940386 139.999924
29 139.999924 -0.000119 0.000119 -1.823176 -1.398041 10.326871 139.999924
[Rope3_Seg04]
28 139.999924 0.000119 0.000000 -5.578946 0.771271 21.839476 139.999924
29 139.999924 0.000119 0.000000 -4.046946 3.406385 20.177223 139.999924
[Rope3_Seg05]
28 139.999924 -0.000238 0.000060 -20.261137 -5.911242 25.017160 139.999924
29 139.999924 -0.000238 0.000060 -21.040531 -5.484563 24.176785 139.999924
[Rope3_Seg06]
28 139.999893 -0.000119 -0.000060 -13.654666 -37.560123 -7.025819 139.999893
29 139.999893 -0.000119 -0.000060 -15.934627 -39.027157 -6.039535 139.999893
[Rope3_Seg07]
28 139.999771 0.000060 -0.000119 1.337339 -20.621107 -12.132096 139.999771
29 139.999771 0.000060 -0.000119 -0.024655 -17.798927 -8.728243 139.999771
[Rope3_Seg08]
28 139.999985 -0.000060 0.000000 1.230188 -7.325467 -2.773447 139.999985
29 139.999985 -0.000060 0.000000 0.720257 -6.719991 -2.364342 139.999985
[Rope3_Seg09]
28 90.185997 -0.000179 -0.000060 -58.316811 -1.360227 -0.847693 90.185997
29 90.185997 -0.000179 -0.000060 -73.217720 -1.360885 -0.847703 90.185997
[R_rear_hand01]
28 103.366196 -6.073594 -10.757982 -160.019470 14.769053 -24.439310 104.101845
29 103.366196 -6.073594 -10.757982 -160.019470 14.769054 -24.439312 104.101845
[R_rear_hand02]
28 100.509819 12.039542 -7.992327 -35.779446 15.980558 23.927948 101.543350
29 100.509819 12.039542 -7.992327 -35.779446 15.980558 23.927948 101.543350
[R_rear_hand03]
28 101.539970 5.215704 5.435467 83.711815 -25.208061 6.550417 101.819031
29 101.539970 5.215704 5.435467 83.711807 -25.208057 6.550418 101.819031
[Rope4_Seg01]
28 0.000010 0.000038 -0.000114 42.153149 6.503547 -128.483597 0.000121
29 0.000010 0.000038 -0.000114 41.472939 10.642507 -125.698677 0.000121
[Rope4_Seg02]
28 139.999985 0.000060 0.000119 3.549377 -9.325647 3.684463 139.999985
29 139.999985 0.000060 0.000119 2.970464 -9.297714 4.099353 139.999985
[Rope4_Seg03]
28 139.999924 0.000000 -0.000238 7.087843 -12.290374 6.513688 139.999924
29 139.999924 0.000000 -0.000238 6.687850 -13.487244 7.868323 139.999924
[Rope4_Seg04]
28 139.999985 0.000000 0.000119 12.386904 -7.559776 18.126303 139.999985
29 139.999985 0.000000 0.000119 12.970955 -11.362642 21.677591 139.999985
[Rope4_Seg05]
28 139.999802 -0.000060 -0.000119 10.056540 -17.263950 4.605029 139.999802
29 139.999802 -0.000060 -0.000119 10.792226 -21.694527 2.637390 139.999802
[Rope4_Seg06]
28 139.999924 0.000000 0.000060 83.559341 -45.142178 -7.140311 139.999924
29 139.999924 0.000000 0.000060 91.754341 -42.747021 -11.380962 139.999924
[Rope4_Seg07]
28 139.999802 0.000000 0.000000 44.918499 -4.644468 20.206820 139.999802
29 139.999802 0.000000 0.000000 44.087681 -2.145306 16.495026 139.999802
[Rope4_Seg08]
28 139.999924 0.000000 0.000119 4.025869 4.315348 6.024377 139.999924
29 139.999924 0.000000 0.000119 4.197464 4.216217 5.343103 139.999924
[Rope4_Seg09]
28 90.185791 0.000060 0.000060 -100.240395 2.230089 0.851260 90.185791
29 90.185791 0.000060 0.000060 -104.173935 2.229867 0.851822 90.185791
[L_rear_hand01]
28 101.696655 -8.392275 -7.654577 -35.296391 -17.139980 154.380920 102.329041
29 101.696655 -8.392275 -7.654577 -35.772343 -16.007231 156.036102 102.329041
[L_rear_hand02]
28 102.726799 -1.568258 5.773216 83.602142 27.193518 173.204086 102.900848
29 102.726799 -1.568258 5.773216 83.710403 25.254452 173.442535 102.900848
[L_rear_hand03]
28 104.552910 9.721220 -10.420293 -160.526398 -15.440559 -153.616974 105.519653
29 104.552910 9.721220 -10.420293 -160.032089 -14.785615 -155.515137 105.519653
